# Blender 3.1.0
# www.blender.org
mtllib hydra.mtl
o Cube
v -0.316374 0.262834 8.702806
v -0.320195 -0.318561 9.483791
v -0.506163 0.679800 3.474157
v -2.051752 -0.760475 3.462539
v 0.164658 0.261302 8.705258
v 0.158638 -0.318125 9.487298
v 0.412673 0.679800 3.474469
v 2.056990 -0.758124 3.483964
v 0.161217 0.001255 9.492056
v 2.056786 0.030312 3.523749
v -0.323281 0.001255 9.489586
v -1.974707 0.030312 3.462682
v -0.437805 1.095860 -3.286564
v 0.481031 1.095860 -3.286253
v -2.105670 -0.706557 -5.417229
v 2.102465 -0.704206 -5.395807
v 2.099817 0.094729 -5.435902
v -2.101069 0.094443 -5.494435
v 0.532789 0.169396 -3.265022
v 0.522016 0.324336 -3.265567
v 0.490316 0.473290 -3.266326
v 0.438905 0.610538 -3.267277
v 0.369760 0.730803 -3.268382
v 0.285538 0.829464 -3.269594
v 0.189477 0.902729 -3.270870
v 0.085266 0.947784 -3.272159
v -0.023087 0.962895 -3.273417
v -0.131422 0.947484 -3.274591
v -0.235572 0.902141 -3.275638
v -0.331536 0.828610 -3.276512
v -0.415628 0.729716 -3.277187
v -0.484614 0.609260 -3.277632
v -0.535843 0.471870 -3.277832
v -0.567348 0.322828 -3.277782
v -0.577918 0.167860 -3.277477
v -0.567144 0.012920 -3.276936
v -0.535442 -0.136035 -3.276176
v -0.484032 -0.273283 -3.275224
v -0.414887 -0.393547 -3.274125
v -0.330665 -0.492208 -3.272911
v -0.234605 -0.565473 -3.271636
v -0.130395 -0.610528 -3.270340
v -0.022040 -0.625639 -3.269084
v 0.086295 -0.610228 -3.267911
v 0.190445 -0.564885 -3.266868
v 0.286409 -0.491354 -3.265990
v 0.370501 -0.392461 -3.265320
v 0.439487 -0.272005 -3.264869
v 0.490717 -0.134615 -3.264670
v 0.522221 0.014428 -3.264720
v 0.553047 0.166564 -6.256078
v 0.693414 0.167277 -5.623265
v 0.542218 0.289667 -6.256499
v 0.679785 0.322216 -5.623864
v 0.510355 0.408014 -6.257219
v 0.639682 0.471171 -5.624713
v 0.458681 0.517060 -6.258079
v 0.574643 0.608418 -5.625787
v 0.389181 0.612614 -6.259041
v 0.487170 0.728683 -5.627048
v 0.304529 0.691002 -6.260169
v 0.380625 0.827344 -5.628436
v 0.207975 0.749213 -6.261332
v 0.259101 0.900610 -5.629908
v 0.103231 0.785010 -6.262547
v 0.127268 0.945664 -5.631401
v -0.005677 0.797016 -6.263645
v -0.009805 0.960776 -5.632866
v -0.114565 0.784772 -6.264806
v -0.146855 0.945364 -5.634233
v -0.219248 0.748746 -6.265734
v -0.278610 0.900022 -5.635465
v -0.315706 0.690324 -6.266567
v -0.400012 0.826490 -5.636503
v -0.400227 0.611750 -6.267200
v -0.506392 0.727597 -5.637311
v -0.469565 0.516045 -6.267683
v -0.593664 0.607140 -5.637856
v -0.521057 0.406885 -6.267843
v -0.658471 0.469751 -5.638124
v -0.552723 0.288467 -6.267832
v -0.698326 0.320708 -5.638096
v -0.563346 0.165342 -6.267586
v -0.711697 0.165740 -5.637777
v -0.552517 0.042240 -6.267128
v -0.698067 0.010801 -5.637178
v -0.520652 -0.076110 -6.266428
v -0.657962 -0.138155 -5.636328
v -0.468979 -0.185156 -6.265563
v -0.592925 -0.275402 -5.635252
v -0.399481 -0.280708 -6.264592
v -0.401214 -0.395667 -5.498896
v -0.314828 -0.359097 -6.263477
v -0.316992 -0.494328 -5.497682
v -0.218274 -0.417308 -6.262315
v -0.220931 -0.567593 -5.496407
v -0.113531 -0.453105 -6.261088
v -0.116721 -0.612647 -5.495118
v -0.004621 -0.465111 -6.259980
v -0.008366 -0.627759 -5.493859
v 0.104267 -0.452867 -6.258864
v 0.099968 -0.612348 -5.492686
v 0.208950 -0.416841 -6.257875
v 0.204118 -0.567005 -5.491642
v 0.305407 -0.358419 -6.257094
v 0.300083 -0.493474 -5.490763
v 0.389927 -0.279846 -6.256440
v 0.384174 -0.394581 -5.490091
v 0.459267 -0.184140 -6.255951
v 0.575382 -0.274124 -5.623188
v 0.510759 -0.074981 -6.255814
v 0.640190 -0.136735 -5.622920
v 0.542424 0.043437 -6.255781
v 0.680045 0.012308 -5.622949
vn 0.3965 0.8283 1.3974
vn -0.0041 -0.9670 0.9147
vn 0.6524 -0.0099 2.6820
vn -0.0186 -0.0046 3.5912
vn -0.0038 0.9612 0.9903
vn -0.0130 0.6432 2.7499
vn -0.7123 0.0456 2.5584
vn -0.4511 0.8093 1.3787
vn -0.0037 0.9764 0.7750
vn -0.4810 0.8708 0.3950
vn 1.0000 0.0018 0.0035
vn 0.0010 -0.9998 -0.0783
vn 0.0172 0.5181 -3.0716
vn 0.4628 0.8798 0.3611
vn -0.9981 0.0517 0.1949
vn 0.0195 -0.0204 -3.5905
vn 0.9690 -0.0750 0.7889
vn 0.9024 0.3845 0.6464
vn 0.8267 0.5403 0.5173
vn 0.7133 0.6917 0.3640
vn 0.5565 0.8282 0.2076
vn 0.3561 0.9341 0.0763
vn 0.1222 0.9925 -0.0004
vn -0.1246 0.9922 -0.0032
vn -0.3591 0.9332 0.0683
vn -0.5605 0.8270 0.1949
vn -0.7187 0.6903 0.3475
vn -0.8333 0.5388 0.4978
vn -0.9102 0.3830 0.6248
vn -0.9564 0.2282 0.7155
vn -0.9779 0.0754 0.7629
vn -0.9777 -0.0765 0.7644
vn -0.9559 -0.2293 0.7200
vn -0.9093 -0.3841 0.6325
vn -0.6818 -0.7297 0.2323
vn -0.7605 -0.6493 -0.0062
vn -0.6064 -0.7951 -0.0015
vn -0.3969 -0.9179 0.0039
vn -0.1382 -0.9904 0.0096
vn 0.1408 -0.9900 0.0148
vn 0.3991 -0.9169 0.0187
vn 0.6081 -0.7938 0.0211
vn 0.7617 -0.6478 0.0221
vn 0.6828 -0.7260 0.2551
vn 0.9026 -0.3826 0.6562
vn 0.9479 -0.2277 0.7444
vn 0.9690 0.0768 0.7869
vn 0.9478 0.2296 0.7386
vn 0.7845 0.0674 -2.2618
vn 0.7582 0.2002 -2.2745
vn 0.7059 0.3280 -2.2975
vn 0.6276 0.4466 -2.3283
vn 0.5241 0.5514 -2.3628
vn 0.3975 0.6369 -2.3962
vn 0.2520 0.6977 -2.4233
vn 0.0938 0.7292 -2.4396
vn -0.0685 0.7288 -2.4421
vn -0.2266 0.6966 -2.4308
vn -0.3718 0.6352 -2.4084
vn -0.4981 0.5493 -2.3791
vn -0.6013 0.4445 -2.3481
vn -0.6793 0.3259 -2.3202
vn -0.7313 0.1984 -2.2991
vn -0.7574 0.0659 -2.2874
vn -0.7574 -0.0683 -2.2863
vn -0.7314 -0.2009 -2.2961
vn -0.6794 -0.3285 -2.3153
vn -0.4883 -0.6951 -1.8649
vn -0.6650 -0.6416 -1.3332
vn -0.4846 -0.7244 -1.7316
vn -0.2877 -0.7730 -2.0129
vn -0.0872 -0.7942 -2.1539
vn 0.1130 -0.7940 -2.1519
vn 0.3118 -0.7721 -2.0073
vn 0.5051 -0.7230 -1.7232
vn 0.6806 -0.6399 -1.3232
vn 0.5122 -0.6934 -1.8513
vn 0.7072 -0.3282 -2.2921
vn 0.7590 -0.2001 -2.2711
vn 0.7848 -0.0672 -2.2606
vn 0.0198 -0.0008 -3.5913
vt 0.000000 0.000000
vt 0.375000 0.500000
vt 0.625000 0.750000
vt 0.375000 0.750000
vt 0.000000 0.000000
vt 0.625000 0.250000
vt 0.125000 0.500000
vt 0.625000 0.000000
vt 0.000000 0.000000
vt 0.125000 0.750000
vt 0.000000 0.000000
vt 0.125000 0.500000
vt 0.125000 0.750000
vt 0.000000 0.000000
vt 0.375000 0.500000
vt 0.375000 0.750000
vt 0.625000 0.750000
vt 0.625000 0.000000
vt 0.000000 0.000000
vt 0.375000 0.750000
vt 0.125000 0.750000
vt 0.055993 -0.004660
vt 0.000000 0.000000
vt 0.125000 0.750000
vt 0.378799 0.750000
vt 0.375000 0.750000
vt 0.055917 0.072083
vt 0.000000 0.500000
vt 1.000000 0.500000
vt 0.968750 0.500000
vt 0.937500 0.500000
vt 0.906250 0.500000
vt 0.875000 0.500000
vt 0.843750 0.500000
vt 0.812500 0.500000
vt 0.781250 0.500000
vt 0.750000 0.500000
vt 0.718750 0.500000
vt 0.687500 0.500000
vt 0.656250 0.500000
vt 0.625000 0.500000
vt 0.593750 0.500000
vt 0.562500 0.500000
vt 0.531250 0.500000
vt 0.500000 0.500000
vt 0.468750 0.500000
vt 0.437500 0.500000
vt 0.406250 0.500000
vt 0.375000 0.500000
vt 0.343750 0.500000
vt 0.312500 0.500000
vt 0.281250 0.500000
vt 0.250000 0.500000
vt 0.218750 0.500000
vt 0.187500 0.500000
vt 0.156250 0.500000
vt 0.125000 0.500000
vt 0.093750 0.500000
vt 0.062500 0.500000
vt 0.031250 0.500000
vt 0.996790 1.000000
vt 0.003210 1.000000
vt 0.250000 0.440685
vt 1.000000 0.896143
vt 0.000000 0.896143
vt 0.971961 1.000000
vt 0.965539 1.000000
vt 0.287201 0.437022
vt 0.968750 0.896143
vt 0.940711 1.000000
vt 0.934289 1.000000
vt 0.322972 0.426171
vt 0.937500 0.896142
vt 0.909461 1.000000
vt 0.903039 1.000000
vt 0.355939 0.408549
vt 0.906250 0.896142
vt 0.878210 1.000000
vt 0.871790 1.000000
vt 0.384835 0.384835
vt 0.875000 0.896142
vt 0.846961 1.000000
vt 0.840539 1.000000
vt 0.408549 0.355939
vt 0.843750 0.896142
vt 0.815710 1.000000
vt 0.809290 1.000000
vt 0.426171 0.322972
vt 0.812500 0.896142
vt 0.784461 1.000000
vt 0.778039 1.000000
vt 0.437022 0.287201
vt 0.781250 0.896142
vt 0.753211 1.000000
vt 0.746789 1.000000
vt 0.440686 0.250000
vt 0.750000 0.896142
vt 0.721961 1.000000
vt 0.715539 1.000000
vt 0.437022 0.212799
vt 0.718750 0.896142
vt 0.690710 1.000000
vt 0.684290 1.000000
vt 0.426170 0.177028
vt 0.687500 0.896142
vt 0.659461 1.000000
vt 0.653039 1.000000
vt 0.408549 0.144061
vt 0.656250 0.896143
vt 0.628211 1.000000
vt 0.621789 1.000000
vt 0.384835 0.115165
vt 0.625000 0.896143
vt 0.596961 1.000000
vt 0.590539 1.000000
vt 0.355939 0.091451
vt 0.593750 0.896142
vt 0.565710 1.000000
vt 0.559290 1.000000
vt 0.322972 0.073830
vt 0.562500 0.896143
vt 0.534461 1.000000
vt 0.528039 1.000000
vt 0.287200 0.062978
vt 0.531250 0.896142
vt 0.503211 1.000000
vt 0.496789 1.000000
vt 0.250000 0.059314
vt 0.500000 0.896142
vt 0.471960 1.000000
vt 0.465540 1.000000
vt 0.212799 0.062979
vt 0.468750 0.896142
vt 0.440710 1.000000
vt 0.434290 1.000000
vt 0.177027 0.073830
vt 0.437500 0.896142
vt 0.409461 1.000000
vt 0.403039 1.000000
vt 0.144061 0.091451
vt 0.406250 0.896142
vt 0.378211 1.000000
vt 0.371790 1.000000
vt 0.115165 0.115165
vt 0.375000 0.896142
vt 0.346961 1.000000
vt 0.340539 1.000000
vt 0.091451 0.144061
vt 0.343750 0.896142
vt 0.315711 1.000000
vt 0.309289 1.000000
vt 0.073829 0.177028
vt 0.312500 0.896142
vt 0.284461 1.000000
vt 0.278039 1.000000
vt 0.062978 0.212799
vt 0.281250 0.896142
vt 0.253210 1.000000
vt 0.246789 1.000000
vt 0.059314 0.250000
vt 0.250000 0.896142
vt 0.221961 1.000000
vt 0.215539 1.000000
vt 0.062978 0.287201
vt 0.218750 0.896142
vt 0.190711 1.000000
vt 0.184289 1.000000
vt 0.073829 0.322972
vt 0.187500 0.896142
vt 0.159461 1.000000
vt 0.153039 1.000000
vt 0.091451 0.355939
vt 0.156250 0.896142
vt 0.128210 1.000000
vt 0.121790 1.000000
vt 0.115165 0.384835
vt 0.125000 0.896143
vt 0.096961 1.000000
vt 0.090539 1.000000
vt 0.144061 0.408549
vt 0.093750 0.896143
vt 0.065711 1.000000
vt 0.059289 1.000000
vt 0.177028 0.426171
vt 0.062500 0.896143
vt 0.034461 1.000000
vt 0.028039 1.000000
vt 0.212799 0.437022
vt 0.031250 0.896143
s 0
usemtl Material
f 10/14/1 7/9/1 5/5/1 9/11/1
f 6/7/2 2/2/2 4/4/2 8/10/2
f 6/7/3 8/10/3 10/13/3 9/12/3
f 2/2/4 6/7/4 9/12/4 11/15/4
f 1/1/5 5/6/5 7/8/5 3/3/5
f 5/6/6 1/1/6 11/15/6 9/12/6
f 4/4/7 2/2/7 11/15/7 12/16/7
f 11/15/8 1/1/8 3/3/8 12/16/8
f 3/3/9 7/8/9 14/18/9 13/17/9
f 12/16/10 3/3/10 13/17/10 18/25/10
f 10/13/11 8/10/11 16/21/11 17/24/11
f 8/10/12 4/4/12 15/20/12 16/21/12
f 17/22/13 18/27/13 13/17/13 14/18/13
f 7/9/14 10/14/14 17/23/14 14/19/14
f 4/4/15 12/16/15 18/26/15 15/20/15
f 16/21/16 15/20/16 18/27/16 17/24/16
f 50/60/17 114/189/17 52/65/17 19/28/17
f 21/31/18 56/73/18 58/77/18 22/32/18
f 22/32/19 58/77/19 60/81/19 23/33/19
f 23/33/20 60/81/20 62/85/20 24/34/20
f 24/34/21 62/85/21 64/89/21 25/35/21
f 25/35/22 64/89/22 66/93/22 26/36/22
f 26/36/23 66/93/23 68/97/23 27/37/23
f 27/37/24 68/97/24 70/101/24 28/38/24
f 28/38/25 70/101/25 72/105/25 29/39/25
f 29/39/26 72/105/26 74/109/26 30/40/26
f 30/40/27 74/109/27 76/113/27 31/41/27
f 31/41/28 76/113/28 78/117/28 32/42/28
f 32/42/29 78/117/29 80/121/29 33/43/29
f 33/43/30 80/121/30 82/125/30 34/44/30
f 34/44/31 82/125/31 84/129/31 35/45/31
f 35/45/32 84/129/32 86/133/32 36/46/32
f 36/46/33 86/133/33 88/137/33 37/47/33
f 37/47/34 88/137/34 90/141/34 38/48/34
f 38/48/35 90/141/35 92/145/35 39/49/35
f 39/49/36 92/145/36 94/149/36 40/50/36
f 40/50/37 94/149/37 96/153/37 41/51/37
f 41/51/38 96/153/38 98/157/38 42/52/38
f 42/52/39 98/157/39 100/161/39 43/53/39
f 43/53/40 100/161/40 102/165/40 44/54/40
f 44/54/41 102/165/41 104/169/41 45/55/41
f 45/55/42 104/169/42 106/173/42 46/56/42
f 46/56/43 106/173/43 108/177/43 47/57/43
f 47/57/44 108/177/44 110/181/44 48/58/44
f 48/58/45 110/181/45 112/185/45 49/59/45
f 49/59/46 112/185/46 114/189/46 50/60/46
f 19/29/47 52/64/47 54/69/47 20/30/47
f 20/30/48 54/69/48 56/73/48 21/31/48
f 54/69/49 52/64/49 51/61/49 53/66/49
f 56/73/50 54/69/50 53/67/50 55/70/50
f 58/77/51 56/73/51 55/71/51 57/74/51
f 60/81/52 58/77/52 57/75/52 59/78/52
f 62/85/53 60/81/53 59/79/53 61/82/53
f 64/89/54 62/85/54 61/83/54 63/86/54
f 66/93/55 64/89/55 63/87/55 65/90/55
f 68/97/56 66/93/56 65/91/56 67/94/56
f 70/101/57 68/97/57 67/95/57 69/98/57
f 72/105/58 70/101/58 69/99/58 71/102/58
f 74/109/59 72/105/59 71/103/59 73/106/59
f 76/113/60 74/109/60 73/107/60 75/110/60
f 78/117/61 76/113/61 75/111/61 77/114/61
f 80/121/62 78/117/62 77/115/62 79/118/62
f 82/125/63 80/121/63 79/119/63 81/122/63
f 84/129/64 82/125/64 81/123/64 83/126/64
f 86/133/65 84/129/65 83/127/65 85/130/65
f 88/137/66 86/133/66 85/131/66 87/134/66
f 90/141/67 88/137/67 87/135/67 89/138/67
f 92/145/68 90/141/68 89/139/68 91/142/68
f 94/149/69 92/145/69 91/143/69 93/146/69
f 96/153/70 94/149/70 93/147/70 95/150/70
f 98/157/71 96/153/71 95/151/71 97/154/71
f 100/161/72 98/157/72 97/155/72 99/158/72
f 102/165/73 100/161/73 99/159/73 101/162/73
f 104/169/74 102/165/74 101/163/74 103/166/74
f 106/173/75 104/169/75 103/167/75 105/170/75
f 108/177/76 106/173/76 105/171/76 107/174/76
f 110/181/77 108/177/77 107/175/77 109/178/77
f 112/185/78 110/181/78 109/179/78 111/182/78
f 114/189/79 112/185/79 111/183/79 113/186/79
f 52/65/80 114/189/80 113/187/80 51/62/80
f 53/68/81 51/63/81 113/188/81 111/184/81 109/180/81 107/176/81 105/172/81 103/168/81 101/164/81 99/160/81 97/156/81 95/152/81 93/148/81 91/144/81 89/140/81 87/136/81 85/132/81 83/128/81 81/124/81 79/120/81 77/116/81 75/112/81 73/108/81 71/104/81 69/100/81 67/96/81 65/92/81 63/88/81 61/84/81 59/80/81 57/76/81 55/72/81
